<svg xmlns="http://www.w3.org/2000/svg" viewBox="0 0 50 50" width="50" height="50">
	<style>
		tspan { white-space:pre }
		.shp0 { fill: #2f89fc } 
	</style>
	<path id="area" class="shp0" d="M41.82 16.82L39.75 18.89L44.38 23.52L30.45 23.52C29.92 21.59 28.4 20.06 26.46 19.54L26.46 5.61L31.11 10.25L33.18 8.18L25 0L16.82 8.18L18.89 10.25L23.54 5.61L23.54 19.54C21.6 20.06 20.08 21.58 19.55 23.52L5.62 23.52L10.25 18.89L8.18 16.82L0 25L8.18 33.18L10.25 31.11L5.59 26.45L19.55 26.45C20.08 28.38 21.6 29.91 23.54 30.43L23.54 44.39L18.89 39.75L16.82 41.82L25 50L33.18 41.82L31.11 39.75L26.46 44.39L26.46 30.43C28.4 29.91 29.92 28.38 30.45 26.45L44.41 26.45L39.75 31.11L41.82 33.18L50 25L41.82 16.82Z" />
</svg>