<svg xmlns="http://www.w3.org/2000/svg" viewBox="0 0 43 37" width="43" height="37">
	<style>
		tspan { white-space:pre }
		.shp0 { fill: #000000 } 
	</style>
	<path id="Asterisk" class="shp0" d="M10.36 36.63C9.46 36.07 9.18 34.88 9.75 33.97L18.14 20.53L2.3 20.53C1.23 20.53 0.36 19.66 0.36 18.6C0.36 17.53 1.23 16.67 2.3 16.67L18.15 16.67L9.75 3.22C9.18 2.32 9.46 1.13 10.36 0.56C11.27 -0.01 12.46 0.27 13.03 1.17L21.63 14.95L30.24 1.17C30.8 0.27 32 -0.01 32.9 0.56C33.81 1.13 34.09 2.32 33.52 3.22L25.12 16.67L40.97 16.67C42.04 16.67 42.9 17.53 42.9 18.6C42.9 19.66 42.04 20.53 40.97 20.53L25.12 20.53L33.52 33.97C34.09 34.88 33.81 36.07 32.9 36.63C32.58 36.83 32.23 36.93 31.88 36.93C31.24 36.93 30.61 36.61 30.24 36.02L21.63 22.25L13.03 36.02C12.66 36.61 12.03 36.93 11.38 36.93C11.03 36.93 10.68 36.83 10.36 36.63Z" />
</svg>