<svg xmlns="http://www.w3.org/2000/svg" viewBox="0 0 32 40" width="32" height="40">
	<style>
		tspan { white-space:pre }
		.shp0 { fill: #2f89fc } 
	</style>
	<path id="Path 306" fill-rule="evenodd" class="shp0" d="M16 39.63L4.69 28.31C-1.56 22.07 -1.56 11.93 4.69 5.69C10.93 -0.56 21.07 -0.56 27.31 5.69C33.56 11.93 33.56 22.07 27.31 28.31L16 39.63ZM16 34.6L24.8 25.8C29.66 20.94 29.66 13.06 24.8 8.2C19.94 3.34 12.06 3.34 7.2 8.2C2.34 13.06 2.34 20.94 7.2 25.8L16 34.6ZM16 24.11C12.07 24.11 8.89 20.93 8.89 17C8.89 13.07 12.07 9.89 16 9.89C19.93 9.89 23.11 13.07 23.11 17C23.11 20.93 19.93 24.11 16 24.11ZM16 20.56C17.96 20.56 19.56 18.96 19.56 17C19.56 15.04 17.96 13.44 16 13.44C14.04 13.44 12.44 15.04 12.44 17C12.44 18.96 14.04 20.56 16 20.56Z" />
</svg>