<svg xmlns="http://www.w3.org/2000/svg" viewBox="0 0 86 85" width="86" height="85">
	<style>
		tspan { white-space:pre }
		.shp0 { fill: #2f89fc } 
	</style>
	<path id="Path 348" fill-rule="evenodd" class="shp0" d="M85.45 40.98C85.52 44.65 82.97 47.84 79.38 48.57L79.38 51.61C79.36 60.25 75.25 68.38 68.3 73.52L72.79 80.29C73.7 81.69 73.32 83.56 71.94 84.48C71.45 84.83 70.87 85.01 70.27 85C69.25 84.99 68.31 84.48 67.75 83.63L63.04 76.59C59.58 78.13 55.84 78.93 52.05 78.93L33.84 78.93C30.05 78.93 26.31 78.13 22.85 76.59L18.15 83.63C17.59 84.48 16.64 84.99 15.63 85C15.03 85.01 14.44 84.83 13.96 84.48C12.57 83.56 12.19 81.69 13.11 80.29L17.6 73.52C10.64 68.38 6.54 60.25 6.52 51.61L6.52 48.57C2.78 48.04 0 44.84 0 41.06C0 37.28 2.78 34.08 6.52 33.54C6.52 33.39 6.52 12.14 6.52 12.14C6.52 5.44 11.96 0 18.66 0L21.7 0C28.4 0 33.84 5.44 33.84 12.14L36.88 12.14C38.55 12.14 39.91 13.5 39.91 15.18C39.91 16.85 38.55 18.21 36.88 18.21L24.73 18.21C23.06 18.21 21.7 16.85 21.7 15.18C21.7 13.5 23.06 12.14 24.73 12.14L27.77 12.14C27.77 8.79 25.05 6.07 21.7 6.07L18.66 6.07C15.31 6.07 12.59 8.79 12.59 12.14L12.59 33.39L77.86 33.39C82.05 33.39 85.45 36.79 85.45 40.98L85.45 40.98ZM73.3 51.61L73.3 48.57L12.59 48.57L12.59 51.61C12.59 63.34 22.1 72.86 33.84 72.86L52.05 72.86C63.79 72.86 73.3 63.34 73.3 51.61ZM79.38 40.98C79.38 40.14 78.7 39.46 77.86 39.46L8.04 39.46C7.2 39.46 6.52 40.14 6.52 40.98C6.52 41.82 7.2 42.5 8.04 42.5L77.86 42.5C78.7 42.5 79.38 41.82 79.38 40.98Z" />
</svg>