<svg xmlns="http://www.w3.org/2000/svg" viewBox="0 0 61 50" width="61" height="50">
	<style>
		tspan { white-space:pre }
		.shp0 { fill: #2f89fc } 
	</style>
	<path id="XMLID_874_" fill-rule="evenodd" class="shp0" d="M60 28.39L60 41.76C60 43.86 58.34 45.58 56.26 45.68L56.26 47.26C56.26 48.23 55.47 49.02 54.5 49.02C53.53 49.02 52.75 48.23 52.75 47.26L52.75 45.69L7.25 45.69L7.25 47.26C7.25 48.23 6.46 49.02 5.5 49.02C4.53 49.02 3.74 48.23 3.74 47.26L3.74 45.68C1.66 45.58 0 43.86 0 41.76L0 28.39C0 26.57 1.25 25.03 2.93 24.59L2.93 23.44C2.93 21.34 4.02 19.49 5.66 18.41L5.66 5.95C5.66 2.67 8.33 0 11.61 0L48.39 0C51.67 0 54.34 2.67 54.34 5.95L54.34 18.41C55.98 19.49 57.07 21.34 57.07 23.44L57.07 24.59C58.75 25.03 60 26.57 60 28.39ZM9.17 17.44L11.51 17.44L11.51 14.35C11.51 12.18 13.27 10.42 15.44 10.42L24.88 10.42C27.04 10.42 28.8 12.18 28.8 14.35L28.8 17.44L31.2 17.44L31.2 14.35C31.2 12.18 32.96 10.42 35.12 10.42L44.56 10.42C46.73 10.42 48.49 12.18 48.49 14.35L48.49 17.44L50.83 17.44L50.83 5.95C50.83 4.6 49.73 3.51 48.39 3.51L11.61 3.51C10.27 3.51 9.17 4.6 9.17 5.95L9.17 17.44ZM44.98 14.35C44.98 14.12 44.79 13.93 44.56 13.93L35.12 13.93C34.89 13.93 34.71 14.12 34.71 14.35L34.71 17.02C34.71 17.25 34.89 17.44 35.12 17.44L44.56 17.44C44.79 17.44 44.98 17.25 44.98 17.02L44.98 14.35ZM24.88 13.93L15.44 13.93C15.21 13.93 15.02 14.12 15.02 14.35L15.02 17.02C15.02 17.25 15.21 17.44 15.44 17.44L24.88 17.44C25.11 17.44 25.29 17.25 25.29 17.02L25.29 14.35C25.29 14.12 25.11 13.93 24.88 13.93ZM6.44 24.46L53.56 24.46L53.56 23.44C53.56 22.07 52.44 20.95 51.07 20.95L8.93 20.95C7.56 20.95 6.44 22.07 6.44 23.44L6.44 24.46ZM56.49 41.76L56.49 28.39C56.49 28.16 56.3 27.97 56.07 27.97L3.93 27.97C3.7 27.97 3.51 28.16 3.51 28.39L3.51 41.76C3.51 41.99 3.7 42.18 3.93 42.18L56.07 42.18C56.3 42.18 56.49 41.99 56.49 41.76L56.49 41.76Z" />
</svg>