<svg xmlns="http://www.w3.org/2000/svg" viewBox="0 0 90 90" width="90" height="90">
	<style>
		tspan { white-space:pre }
		.shp0 { fill: #292929 } 
	</style>
	<path id="Path 361" fill-rule="evenodd" class="shp0" d="M90 37.79L90 87.36C90 88.82 88.82 90 87.36 90L2.64 90C1.18 90 0 88.82 0 87.36L0 37.79C0 36.34 1.18 35.16 2.64 35.16L21.09 35.16L21.09 2.64C21.09 1.18 22.27 0 23.73 0L66.27 0C67.73 0 68.91 1.18 68.91 2.64L68.91 35.16L87.36 35.16C88.82 35.16 90 36.34 90 37.79ZM5.27 84.73L21.09 84.73L21.09 40.43L5.27 40.43L5.27 84.73ZM26.37 84.73L31.82 84.73L31.82 75.59C31.82 74.13 33 72.95 34.45 72.95L55.55 72.95C57 72.95 58.18 74.13 58.18 75.59L58.18 84.73L63.63 84.73L63.63 5.27L26.37 5.27L26.37 84.73ZM37.09 84.73L42.36 84.73L42.36 78.22L37.09 78.22L37.09 84.73ZM52.91 84.73L52.91 78.22L47.64 78.22L47.64 84.73L52.91 84.73ZM84.73 40.43L68.91 40.43L68.91 84.73L84.73 84.73L84.73 40.43Z" />
	<path id="Path 362" class="shp0" d="M34.45 51.86C35.91 51.86 37.09 50.67 37.09 49.22L37.09 43.95C37.09 42.49 35.91 41.31 34.45 41.31C33 41.31 31.82 42.49 31.82 43.95L31.82 49.22C31.82 50.67 33 51.86 34.45 51.86Z" />
	<path id="Path 363" class="shp0" d="M45 41.31C43.54 41.31 42.36 42.49 42.36 43.95L42.36 49.22C42.36 50.67 43.54 51.86 45 51.86C46.46 51.86 47.64 50.67 47.64 49.22L47.64 43.95C47.64 42.49 46.46 41.31 45 41.31Z" />
	<path id="Path 364" class="shp0" d="M52.91 43.95L52.91 49.22C52.91 50.67 54.09 51.86 55.55 51.86C57 51.86 58.18 50.67 58.18 49.22L58.18 43.95C58.18 42.49 57 41.31 55.55 41.31C54.09 41.31 52.91 42.49 52.91 43.95Z" />
	<path id="Path 365" class="shp0" d="M34.45 67.68C35.91 67.68 37.09 66.5 37.09 65.04L37.09 59.77C37.09 58.31 35.91 57.13 34.45 57.13C33 57.13 31.82 58.31 31.82 59.77L31.82 65.04C31.82 66.5 33 67.68 34.45 67.68Z" />
	<path id="Path 366" class="shp0" d="M45 57.13C43.54 57.13 42.36 58.31 42.36 59.77L42.36 65.04C42.36 66.5 43.54 67.68 45 67.68C46.46 67.68 47.64 66.5 47.64 65.04L47.64 59.77C47.64 58.31 46.46 57.13 45 57.13Z" />
	<path id="Path 367" class="shp0" d="M55.55 57.13C54.09 57.13 52.91 58.31 52.91 59.77L52.91 65.04C52.91 66.5 54.09 67.68 55.55 67.68C57 67.68 58.18 66.5 58.18 65.04L58.18 59.77C58.18 58.31 57 57.13 55.55 57.13Z" />
	<path id="Path 368" class="shp0" d="M34.45 20.21C35.91 20.21 37.09 19.03 37.09 17.58L37.09 12.3C37.09 10.85 35.91 9.67 34.45 9.67C33 9.67 31.82 10.85 31.82 12.3L31.82 17.58C31.82 19.03 33 20.21 34.45 20.21Z" />
	<path id="Path 369" class="shp0" d="M45 9.67C43.54 9.67 42.36 10.85 42.36 12.3L42.36 17.58C42.36 19.03 43.54 20.21 45 20.21C46.46 20.21 47.64 19.03 47.64 17.58L47.64 12.3C47.64 10.85 46.46 9.67 45 9.67Z" />
	<path id="Path 370" class="shp0" d="M52.91 12.3L52.91 17.58C52.91 19.03 54.09 20.21 55.55 20.21C57 20.21 58.18 19.03 58.18 17.58L58.18 12.3C58.18 10.85 57 9.67 55.55 9.67C54.09 9.67 52.91 10.85 52.91 12.3Z" />
	<path id="Path 371" class="shp0" d="M34.45 36.04C35.91 36.04 37.09 34.85 37.09 33.4L37.09 28.12C37.09 26.67 35.91 25.49 34.45 25.49C33 25.49 31.82 26.67 31.82 28.12L31.82 33.4C31.82 34.85 33 36.04 34.45 36.04Z" />
	<path id="Path 372" class="shp0" d="M45 25.49C43.54 25.49 42.36 26.67 42.36 28.12L42.36 33.4C42.36 34.85 43.54 36.04 45 36.04C46.46 36.04 47.64 34.85 47.64 33.4L47.64 28.12C47.64 26.67 46.46 25.49 45 25.49Z" />
	<path id="Path 373" class="shp0" d="M55.55 25.49C54.09 25.49 52.91 26.67 52.91 28.12L52.91 33.4C52.91 34.85 54.09 36.04 55.55 36.04C57 36.04 58.18 34.85 58.18 33.4L58.18 28.12C58.18 26.67 57 25.49 55.55 25.49Z" />
	<path id="Path 374" class="shp0" d="M76.82 56.25C78.27 56.25 79.45 55.07 79.45 53.61L79.45 48.34C79.45 46.88 78.27 45.7 76.82 45.7C75.36 45.7 74.18 46.88 74.18 48.34L74.18 53.61C74.18 55.07 75.36 56.25 76.82 56.25Z" />
	<path id="Path 375" class="shp0" d="M76.82 72.07C78.27 72.07 79.45 70.89 79.45 69.43L79.45 64.16C79.45 62.7 78.27 61.52 76.82 61.52C75.36 61.52 74.18 62.7 74.18 64.16L74.18 69.43C74.18 70.89 75.36 72.07 76.82 72.07Z" />
	<path id="Path 376" class="shp0" d="M13.18 45.7C11.73 45.7 10.55 46.88 10.55 48.34L10.55 53.61C10.55 55.07 11.73 56.25 13.18 56.25C14.64 56.25 15.82 55.07 15.82 53.61L15.82 48.34C15.82 46.88 14.64 45.7 13.18 45.7Z" />
	<path id="Path 377" class="shp0" d="M13.18 61.52C11.73 61.52 10.55 62.7 10.55 64.16L10.55 69.43C10.55 70.89 11.73 72.07 13.18 72.07C14.64 72.07 15.82 70.89 15.82 69.43L15.82 64.16C15.82 62.7 14.64 61.52 13.18 61.52Z" />
</svg>