<svg xmlns="http://www.w3.org/2000/svg" viewBox="0 0 50 60" width="50" height="60">
	<style>
		tspan { white-space:pre }
		.shp0 { fill: #e15858 } 
	</style>
	<path id="Path 338" fill-rule="evenodd" class="shp0" d="M31.02 0L31.8 0.7L33.59 2.5L50 2.5L50 7.5L47.5 7.5L47.5 52.5C47.5 56.61 44.11 60 40 60L10 60C5.89 60 2.5 56.61 2.5 52.5L2.5 7.5L0 7.5L0 2.5L16.41 2.5L18.2 0.7L18.98 0L31.02 0ZM19.3 6.8L18.52 7.5L7.5 7.5L7.5 52.5C7.5 53.89 8.61 55 10 55L40 55C41.39 55 42.5 53.89 42.5 52.5L42.5 7.5L31.48 7.5L30.7 6.8L28.91 5L21.09 5L19.3 6.8ZM17.5 17.5L17.5 45L12.5 45L12.5 17.5L17.5 17.5ZM27.5 17.5L27.5 45L22.5 45L22.5 17.5L27.5 17.5ZM37.5 17.5L37.5 45L32.5 45L32.5 17.5L37.5 17.5Z" />
</svg>