<svg xmlns="http://www.w3.org/2000/svg" viewBox="0 0 82 63" width="82" height="63">
	<style>
		tspan { white-space:pre }
		.shp0 { fill: #000000 } 
	</style>
	<path id="Delete" class="shp0" d="M60.93 63L60.92 63L39.83 63C39.47 63 39.12 62.99 38.69 62.98C38.49 62.98 38.33 62.97 38 62.97C36.6 62.95 35.16 62.82 33.72 62.59C32.18 62.34 30.68 61.86 29.28 61.16C27.92 60.49 26.63 59.58 25.55 58.52C25.46 58.44 25.41 58.4 25.22 58.2C25.16 58.14 25.07 58.05 25.07 58.05C24.71 57.71 24.39 57.4 24.03 57.04C23.45 56.5 23.1 56.15 22.79 55.84L14.78 48.01L14.5 47.76L13.91 47.19L13.18 46.49L5.79 39.26L5.66 39.13C5.6 39.07 5.52 38.99 5.42 38.89L5.08 38.56L5.04 38.52L5.02 38.5L4.92 38.4C4.9 38.38 4.89 38.36 4.86 38.35L4.83 38.31L4.77 38.25C4.55 38.03 4.55 38.03 4.5 37.98C3.91 37.41 3.31 36.77 2.73 36.08C2.22 35.55 1.81 34.93 1.5 34.25L1.41 34.02C0.86 32.37 0.86 30.63 1.41 28.98L1.49 28.76C1.79 28.08 2.21 27.47 2.73 26.93C3.22 26.32 3.8 25.7 4.45 25.07C4.67 24.84 4.83 24.68 5.08 24.43L5.42 24.1C5.51 24.01 5.51 24.01 5.6 23.92C5.7 23.82 5.7 23.82 5.78 23.74L13.13 16.56C13.37 16.32 13.58 16.12 13.89 15.82L14.2 15.53C14.32 15.41 14.42 15.31 14.53 15.21L22.76 7.18C23.19 6.75 23.54 6.42 23.98 6C24.3 5.68 24.65 5.34 25.07 4.95L25.15 4.87L25.26 4.75L25.35 4.66L25.41 4.6L25.45 4.55L25.47 4.53L25.49 4.52C26.61 3.43 27.88 2.53 29.28 1.83C30.68 1.13 32.16 0.66 33.7 0.41C35.17 0.17 36.6 0.04 37.96 0.03C38.32 0.02 38.48 0.02 38.69 0.02C39.11 0.01 39.47 0 39.82 0L63.05 0C63.64 0 64.12 0.01 64.85 0.03C66.25 0.04 67.7 0.17 69.16 0.4C70.7 0.65 72.18 1.13 73.59 1.83C75 2.53 76.27 3.44 77.38 4.52C78.47 5.59 79.4 6.84 80.14 8.24C80.84 9.6 81.33 11.06 81.6 12.56C81.82 13.9 81.95 15.29 81.97 16.69C81.98 17.04 81.98 17.31 81.99 17.82L81.99 18.06L82 18.53L82 44.47C82 45.08 81.99 45.65 81.97 46.26C81.95 47.66 81.82 49.07 81.59 50.45C81.33 51.95 80.84 53.4 80.13 54.79C79.41 56.15 78.48 57.39 77.38 58.47C76.27 59.56 75 60.46 73.59 61.17C72.2 61.86 70.71 62.34 69.16 62.59C67.79 62.82 66.36 62.95 64.91 62.96C63.98 62.99 63.59 63 63.05 63L60.93 63L60.93 58.15L63.05 58.15C63.52 58.15 63.9 58.14 64.81 58.12C65.94 58.11 67.13 58 68.35 57.81C69.38 57.64 70.39 57.32 71.34 56.85C72.29 56.36 73.14 55.76 73.87 55.06C74.62 54.31 75.26 53.46 75.71 52.59C76.19 51.67 76.52 50.68 76.7 49.65C76.89 48.51 77 47.37 77.01 46.16C77.03 45.42 77.04 44.9 77.04 44.47L77.04 19.57L77.04 18.56L77.03 18.12C77.03 17.48 77.02 17.19 77.01 16.8C77 15.6 76.89 14.44 76.71 13.37C76.52 12.34 76.19 11.35 75.72 10.43C75.24 9.51 74.62 8.68 73.87 7.95C73.15 7.24 72.29 6.63 71.34 6.15C70.41 5.68 69.4 5.36 68.33 5.18C67.13 4.99 65.97 4.89 64.77 4.88L64.74 4.88L64.67 4.87L64.36 4.87C63.73 4.85 63.43 4.84 63.05 4.84L39.82 4.84C39.51 4.84 39.19 4.85 38.8 4.86C38.61 4.86 38.45 4.87 38.04 4.88C36.91 4.89 35.72 4.99 34.53 5.18C33.48 5.36 32.47 5.68 31.53 6.15C30.58 6.62 29.73 7.22 28.94 8C28.65 8.3 28.55 8.4 28.48 8.47C28.08 8.84 27.77 9.13 27.48 9.42C26.9 9.98 26.59 10.28 26.29 10.58L17.93 18.76C17.79 18.87 17.74 18.92 17.68 18.97C17.59 19.07 17.59 19.07 17.49 19.16C17.1 19.53 16.92 19.7 16.68 19.95L9.27 27.19C9.19 27.26 9.19 27.26 9.11 27.34C9.03 27.42 9.03 27.42 8.95 27.5C8.79 27.66 8.7 27.75 8.6 27.84C8.32 28.12 8.21 28.23 8.09 28.36C7.44 28.99 6.96 29.5 6.54 30.03L6.36 30.23C6.25 30.34 6.16 30.46 6.09 30.59C5.92 31.16 5.92 31.79 6.09 32.4C6.17 32.55 6.27 32.69 6.39 32.82C6.96 33.49 7.46 34.03 8.01 34.56L8.16 34.71L8.31 34.85L8.58 35.13C8.69 35.23 8.77 35.31 8.95 35.49L9.11 35.65C9.19 35.73 9.24 35.77 9.29 35.83L16.67 43.04L17.39 43.73L17.87 44.2C17.96 44.27 18.04 44.34 18.11 44.42L26.32 52.44C26.7 52.82 27.07 53.17 27.53 53.62C27.8 53.88 28.09 54.17 28.45 54.5C28.56 54.59 28.58 54.61 28.82 54.87C28.88 54.93 28.94 54.99 28.98 55.02C29.75 55.78 30.61 56.4 31.53 56.85C32.48 57.32 33.49 57.64 34.54 57.81C35.72 58 36.89 58.11 38.1 58.12C38.46 58.13 38.61 58.13 38.81 58.14C39.2 58.15 39.52 58.15 39.83 58.15L60.92 58.15L60.92 60.57L60.93 63L60.93 63ZM37.02 42.87C36.26 42.1 36.26 40.86 37.02 40.1L45.73 31.39L36.68 22.35C35.91 21.58 35.91 20.34 36.68 19.57C37.44 18.81 38.69 18.81 39.45 19.57L48.5 28.62L57.55 19.57C58.31 18.81 59.55 18.81 60.32 19.57C61.08 20.34 61.08 21.58 60.32 22.35L51.27 31.39L59.97 40.1C60.74 40.86 60.74 42.1 59.97 42.87C59.21 43.63 57.97 43.63 57.2 42.87L48.5 34.17L39.8 42.87C39.41 43.25 38.91 43.44 38.41 43.44C37.91 43.44 37.41 43.25 37.02 42.87Z" />
</svg>