<svg xmlns="http://www.w3.org/2000/svg" viewBox="0 0 47 47" width="47" height="47">
	<style>
		tspan { white-space:pre }
		.shp0 { fill: #000000 } 
	</style>
	<path id="Path 331" fill-rule="evenodd" class="shp0" d="M10.14 37.25C11.11 34.5 13.71 32.66 16.62 32.66C19.54 32.66 22.14 34.5 23.11 37.25L46.42 37.25L46.42 41.83L23.11 41.83C22.14 44.58 19.54 46.42 16.62 46.42C13.71 46.42 11.11 44.58 10.14 41.83L0.58 41.83L0.58 37.25L10.14 37.25ZM23.89 21.21C24.86 18.46 27.46 16.62 30.37 16.62C33.29 16.62 35.89 18.46 36.86 21.21L46.42 21.21L46.42 25.79L36.86 25.79C35.89 28.54 33.29 30.38 30.37 30.38C27.46 30.38 24.86 28.54 23.89 25.79L0.58 25.79L0.58 21.21L23.89 21.21ZM10.14 5.17C11.11 2.42 13.71 0.58 16.62 0.58C19.54 0.58 22.14 2.42 23.11 5.17L46.42 5.17L46.42 9.75L23.11 9.75C22.14 12.5 19.54 14.34 16.62 14.34C13.71 14.34 11.11 12.5 10.14 9.75L0.58 9.75L0.58 5.17L10.14 5.17ZM16.62 9.75C17.89 9.75 18.92 8.72 18.92 7.46C18.92 6.19 17.89 5.17 16.62 5.17C15.36 5.17 14.33 6.19 14.33 7.46C14.33 8.72 15.36 9.75 16.62 9.75ZM30.37 25.79C31.64 25.79 32.67 24.77 32.67 23.5C32.67 22.23 31.64 21.21 30.37 21.21C29.11 21.21 28.08 22.23 28.08 23.5C28.08 24.77 29.11 25.79 30.37 25.79ZM16.62 41.83C17.89 41.83 18.92 40.81 18.92 39.54C18.92 38.28 17.89 37.25 16.62 37.25C15.36 37.25 14.33 38.28 14.33 39.54C14.33 40.81 15.36 41.83 16.62 41.83Z" />
</svg>