<svg xmlns="http://www.w3.org/2000/svg" viewBox="0 0 42 42" width="42" height="42">
	<style>
		tspan { white-space:pre }
		.shp0 { fill: #000000 } 
	</style>
	<path id="Hash" fill-rule="evenodd" class="shp0" d="M27.19 40.25L27.19 30.77L14.82 30.77L14.82 40.25C14.82 41.22 14.03 42 13.07 42C12.1 42 11.32 41.22 11.32 40.25L11.32 30.77L1.75 30.77C0.78 30.77 0 29.99 0 29.02C0 28.05 0.78 27.27 1.75 27.27L11.32 27.27L11.32 14.9L1.75 14.9C0.78 14.9 0 14.12 0 13.15C0 12.18 0.78 11.4 1.75 11.4L11.32 11.4L11.32 1.75C11.32 0.78 12.1 0 13.07 0C14.03 0 14.82 0.78 14.82 1.75L14.82 11.4L27.19 11.4L27.19 1.75C27.19 0.78 27.97 0 28.93 0C29.9 0 30.68 0.78 30.68 1.75L30.68 11.4L40.25 11.4C41.22 11.4 42 12.18 42 13.15C42 14.12 41.22 14.9 40.25 14.9L30.68 14.9L30.68 27.27L40.25 27.27C41.22 27.27 42 28.05 42 29.02C42 29.99 41.22 30.77 40.25 30.77L30.68 30.77L30.68 40.25C30.68 41.22 29.9 42 28.93 42C27.97 42 27.19 41.22 27.19 40.25ZM14.82 27.27L27.19 27.27L27.19 14.9L14.82 14.9L14.82 27.27Z" />
</svg>