<svg xmlns="http://www.w3.org/2000/svg" viewBox="0 0 91 90" width="91" height="90">
	<style>
		tspan { white-space:pre }
		.shp0 { fill: #ffffff } 
	</style>
	<path id="Path 358" fill-rule="evenodd" class="shp0" d="M51.15 53.79L51.15 64.34C51.15 65.79 49.97 66.97 48.52 66.97L37.97 66.97C36.51 66.97 35.33 65.79 35.33 64.34L35.33 53.79C35.33 52.33 36.51 51.15 37.97 51.15L48.52 51.15C49.97 51.15 51.15 52.33 51.15 53.79ZM45.88 56.43L40.61 56.43L40.61 61.7L45.88 61.7L45.88 56.43Z" />
	<path id="Path 359" fill-rule="evenodd" class="shp0" d="M31.82 53.79L31.82 64.34C31.82 65.79 30.64 66.97 29.18 66.97L18.63 66.97C17.18 66.97 16 65.79 16 64.34L16 53.79C16 52.33 17.18 51.15 18.63 51.15L29.18 51.15C30.64 51.15 31.82 52.33 31.82 53.79ZM26.54 56.43L21.27 56.43L21.27 61.7L26.54 61.7L26.54 56.43Z" />
	<path id="Path 360" fill-rule="evenodd" class="shp0" d="M90 78.4L90 87.36C90 88.82 88.82 90 87.36 90L2.64 90C1.18 90 0 88.82 0 87.36L0 78.4C0 76.94 1.18 75.76 2.64 75.76L7.21 75.76L7.21 47.64L2.64 47.64C0.88 47.64 -0.39 45.95 0.11 44.26L9.36 12.62C9.69 11.5 10.72 10.72 11.89 10.72L55.68 10.72L55.68 5.27C54.22 5.27 53.04 4.09 53.04 2.64C53.04 1.18 54.22 0 55.68 0C57.28 0 68.9 0 71.5 0C72.95 0 74.13 1.18 74.13 2.64C74.13 4.09 72.95 5.27 71.5 5.27L71.5 10.72L78.11 10.72C79.28 10.72 80.31 11.5 80.64 12.62L89.89 44.26C90.39 45.94 89.12 47.64 87.36 47.64L82.79 47.64L82.79 75.76L87.36 75.76C88.82 75.76 90 76.94 90 78.4ZM60.95 10.72L66.22 10.72L66.22 5.27L60.95 5.27L60.95 10.72ZM28.95 42.36L43.07 27.21C44.11 26.09 45.89 26.09 46.93 27.21L61.05 42.36C62.12 42.36 82.77 42.36 83.84 42.36L76.13 16C75.16 16 14.31 16 13.87 16L6.16 42.36C7.23 42.36 27.88 42.36 28.95 42.36ZM74 60.82L74 75.76L77.52 75.76L77.52 47.64L59.9 47.64C59.17 47.64 58.47 47.33 57.97 46.8L45 32.87L32.03 46.8C31.53 47.33 30.83 47.64 30.1 47.64L12.48 47.64L12.48 75.76L54.67 75.76L54.67 60.82C54.67 55.49 59 51.15 64.34 51.15C69.67 51.15 74 55.49 74 60.82ZM68.73 75.76L68.73 60.82C68.73 58.4 66.76 56.43 64.34 56.43C61.91 56.43 59.94 58.4 59.94 60.82L59.94 75.76L68.73 75.76ZM84.73 81.04C83.49 81.04 6.52 81.04 5.27 81.04L5.27 84.73L84.73 84.73L84.73 81.04Z" />
</svg>