<svg xmlns="http://www.w3.org/2000/svg" viewBox="0 0 43 43" width="43" height="43">
	<style>
		tspan { white-space:pre }
		.shp0 { fill: #5b5b5b } 
	</style>
	<path id="Path 1476" fill-rule="evenodd" class="shp0" d="M42.12 7.75L42.12 35.25C42.12 39.05 39.05 42.12 35.25 42.12L7.75 42.12C3.95 42.12 0.87 39.05 0.87 35.25L0.87 7.75C0.87 3.95 3.95 0.87 7.75 0.87L35.25 0.87C39.05 0.87 42.12 3.95 42.12 7.75ZM5.46 7.75L5.46 34.56L22.14 20.65C24.48 18.72 27.86 18.72 30.21 20.65L37.54 26.91L37.54 7.75C37.54 6.48 36.52 5.46 35.25 5.46L7.75 5.46C6.48 5.46 5.46 6.48 5.46 7.75ZM37.54 35.25L37.54 32.96L27.21 24.16C26.57 23.69 25.71 23.69 25.07 24.16L9.03 37.54L35.25 37.54C36.52 37.54 37.54 36.52 37.54 35.25Z" />
	<path id="Ellipse 72" class="shp0" d="M12.33 16.92C10.43 16.92 8.9 15.38 8.9 13.48C8.9 11.58 10.43 10.04 12.33 10.04C14.23 10.04 15.77 11.58 15.77 13.48C15.77 15.38 14.23 16.92 12.33 16.92Z" />
</svg>