<svg xmlns="http://www.w3.org/2000/svg" viewBox="0 0 46 55" width="46" height="55">
	<style>
		tspan { white-space:pre }
		.shp0 { fill: #ffffff } 
	</style>
	<path id="location_white" fill-rule="evenodd" class="shp0" d="M22.5 54.32L6.59 38.41C-2.2 29.62 -2.2 15.38 6.59 6.59C15.38 -2.2 29.62 -2.2 38.41 6.59C47.2 15.38 47.2 29.62 38.41 38.41L22.5 54.32ZM22.5 47.25L34.87 34.87C41.71 28.04 41.71 16.96 34.87 10.13C28.04 3.29 16.96 3.29 10.13 10.13C3.29 16.96 3.29 28.04 10.12 34.87L22.5 47.25ZM22.5 32.5C16.98 32.5 12.5 28.02 12.5 22.5C12.5 16.98 16.98 12.5 22.5 12.5C28.02 12.5 32.5 16.98 32.5 22.5C32.5 28.02 28.02 32.5 22.5 32.5ZM22.5 27.5C25.26 27.5 27.5 25.26 27.5 22.5C27.5 19.74 25.26 17.5 22.5 17.5C19.74 17.5 17.5 19.74 17.5 22.5C17.5 25.26 19.74 27.5 22.5 27.5Z" />
</svg>