<svg xmlns="http://www.w3.org/2000/svg" viewBox="0 0 44 43" width="44" height="43">
	<style>
		tspan { white-space:pre }
		.shp0 { fill: #000000 } 
	</style>
	<path id="Plus" class="shp0" d="M19.84 40.93L19.84 23.53L2.43 23.53C1.37 23.53 0.5 22.67 0.5 21.6C0.5 20.53 1.37 19.66 2.43 19.66L19.84 19.66L19.84 2.26C19.84 1.2 20.7 0.33 21.77 0.33C22.84 0.33 23.7 1.2 23.7 2.26L23.7 19.66L41.1 19.66C42.17 19.66 43.04 20.53 43.04 21.6C43.04 22.67 42.17 23.53 41.1 23.53L23.7 23.53L23.7 40.93C23.7 42 22.84 42.87 21.77 42.87C20.7 42.87 19.84 42 19.84 40.93Z" />
</svg>