<svg xmlns="http://www.w3.org/2000/svg" viewBox="0 0 67 74" width="67" height="74">
	<style>
		tspan { white-space:pre }
		.shp0 { fill: #000000;stroke: #000000;stroke-width: 3 } 
	</style>
	<path id="Path 332" fill-rule="evenodd" class="shp0" d="M51 20C51 29.93 42.93 38 33 38C23.07 38 15 29.93 15 20C15 10.07 23.07 2 33 2C42.93 2 51 10.07 51 20ZM47 20C47 12.28 40.72 6 33 6C25.28 6 19 12.28 19 20C19 27.72 25.28 34 33 34C40.72 34 47 27.72 47 20Z" />
	<path id="Path 333" fill-rule="evenodd" class="shp0" d="M63 55.53L63 70.27L3 70.27L3 55.53C9.09 46.39 18.2 42.13 27.42 42.13L38.58 42.13C47.82 42.13 56.92 46.41 63 55.53ZM59 56.75C54.33 50.09 46.74 46.13 38.58 46.13L27.42 46.13C19.26 46.13 11.67 50.09 7 56.75L7 66.27L59 66.27L59 56.75Z" />
</svg>