<svg xmlns="http://www.w3.org/2000/svg" viewBox="0 0 96 96" width="96" height="96">
	<style>
		tspan { white-space:pre }
		.shp0 { fill: #ffffff } 
	</style>
	<path id="Path 378" fill-rule="evenodd" class="shp0" d="M86.52 54.29L8.48 54.29C7.55 54.29 6.79 53.53 6.79 52.59L6.79 18.66C6.79 17.72 7.55 16.96 8.48 16.96L86.52 16.96C87.45 16.96 88.21 17.72 88.21 18.66L88.21 52.59C88.21 53.53 87.45 54.29 86.52 54.29ZM10.18 50.89L84.82 50.89L84.82 20.36L10.18 20.36L10.18 50.89Z" />
	<path id="Path 379" fill-rule="evenodd" class="shp0" d="M93.3 61.07L1.7 61.07C0.76 61.07 0 60.31 0 59.37L0 11.87C0 10.94 0.76 10.18 1.7 10.18L93.3 10.18C94.24 10.18 95 10.94 95 11.87L95 59.37C95 60.31 94.24 61.07 93.3 61.07ZM3.39 57.68L91.61 57.68L91.61 13.57L3.39 13.57L3.39 57.68Z" />
	<path id="Path 380" fill-rule="evenodd" class="shp0" d="M54.29 13.57L40.71 13.57C39.78 13.57 39.02 12.81 39.02 11.87L39.02 1.7C39.02 0.76 39.78 0 40.71 0L54.29 0C55.22 0 55.98 0.76 55.98 1.7L55.98 11.87C55.98 12.81 55.22 13.57 54.29 13.57ZM42.41 10.18L52.59 10.18L52.59 3.39L42.41 3.39L42.41 10.18Z" />
	<path id="Path 381" fill-rule="evenodd" class="shp0" d="M54.29 95L40.71 95C39.78 95 39.02 94.24 39.02 93.3L39.02 59.37C39.02 58.44 39.78 57.68 40.71 57.68L54.29 57.68C55.22 57.68 55.98 58.44 55.98 59.37L55.98 93.3C55.98 94.24 55.22 95 54.29 95ZM42.41 91.61L52.59 91.61L52.59 61.07L42.41 61.07L42.41 91.61Z" />
	<path id="Path 382" class="shp0" d="M44.11 44.11L33.93 44.11C32.99 44.11 32.23 43.35 32.23 42.41L32.23 28.84C32.23 27.9 32.99 27.14 33.93 27.14L44.11 27.14C45.04 27.14 45.8 27.9 45.8 28.84C45.8 29.78 45.04 30.54 44.11 30.54L35.62 30.54L35.62 40.71L44.11 40.71C45.04 40.71 45.8 41.47 45.8 42.41C45.8 43.35 45.04 44.11 44.11 44.11Z" />
	<path id="Path 383" class="shp0" d="M44.11 37.32L33.93 37.32C32.99 37.32 32.23 36.56 32.23 35.62C32.23 34.69 32.99 33.93 33.93 33.93L44.11 33.93C45.04 33.93 45.8 34.69 45.8 35.62C45.8 36.56 45.04 37.32 44.11 37.32Z" />
	<path id="Path 384" class="shp0" d="M61.07 44.11C60.54 44.11 60.03 43.86 59.71 43.43L52.59 33.93L52.59 42.41C52.59 43.35 51.83 44.11 50.89 44.11C49.96 44.11 49.2 43.35 49.2 42.41L49.2 28.84C49.2 28.11 49.66 27.46 50.36 27.23C51.05 27 51.81 27.24 52.25 27.82L59.37 37.32L59.37 28.84C59.37 27.9 60.13 27.14 61.07 27.14C62.01 27.14 62.77 27.9 62.77 28.84L62.77 42.41C62.77 43.14 62.3 43.79 61.61 44.02C61.44 44.08 61.25 44.11 61.07 44.11Z" />
	<path id="Path 385" class="shp0" d="M78.04 30.54L67.86 30.54C66.92 30.54 66.16 29.78 66.16 28.84C66.16 27.9 66.92 27.14 67.86 27.14L78.04 27.14C78.97 27.14 79.73 27.9 79.73 28.84C79.73 29.78 78.97 30.54 78.04 30.54Z" />
	<path id="Path 386" class="shp0" d="M72.95 44.11C72.01 44.11 71.25 43.35 71.25 42.41L71.25 28.84C71.25 27.9 72.01 27.14 72.95 27.14C73.88 27.14 74.64 27.9 74.64 28.84L74.64 42.41C74.64 43.35 73.88 44.11 72.95 44.11Z" />
	<path id="Path 387" fill-rule="evenodd" class="shp0" d="M27.14 44.11C26.81 44.11 26.48 44.01 26.2 43.82L18.66 38.79L18.66 42.41C18.66 43.35 17.9 44.11 16.96 44.11C16.03 44.11 15.27 43.35 15.27 42.41L15.27 28.84C15.27 27.9 16.03 27.14 16.96 27.14L25.45 27.14C27.32 27.15 28.84 28.66 28.84 30.54L28.84 33.93C28.84 35.8 27.32 37.32 25.45 37.32L22.57 37.32L28.08 41C28.71 41.41 28.98 42.19 28.77 42.9C28.55 43.62 27.89 44.11 27.14 44.11ZM18.66 33.93L25.45 33.93L25.45 30.54L18.66 30.54L18.66 33.93Z" />
</svg>