<svg xmlns="http://www.w3.org/2000/svg" viewBox="0 0 60 61" width="60" height="61">
	<style>
		tspan { white-space:pre }
		.shp0 { fill: #292929 } 
	</style>
	<g id="lounge" style="opacity: 0.898">
		<path id="Path 397" fill-rule="evenodd" class="shp0" d="M60 37.03C60 38.74 60 49.29 60 50.98C60 51.95 59.21 52.73 58.24 52.73L49.35 52.73L49.35 56.48L54.61 56.48C55.58 56.48 56.37 57.27 56.37 58.24C56.37 59.21 55.58 60 54.61 60L40.56 60C39.59 60 38.81 59.21 38.81 58.24C38.81 57.27 39.59 56.48 40.56 56.48L45.84 56.48L45.84 52.73L14.18 52.73L14.18 56.48L19.45 56.48C20.42 56.48 21.21 57.27 21.21 58.24C21.21 59.21 20.42 60 19.45 60L5.41 60C4.44 60 3.65 59.21 3.65 58.24C3.65 57.27 4.44 56.48 5.41 56.48L10.66 56.48L10.66 52.73L1.76 52.73C0.79 52.73 0 51.95 0 50.98L0 37.03C0 36.06 0.79 35.27 1.76 35.27L7.15 35.27L7.15 30C7.15 27.09 9.51 24.73 12.42 24.73L22.97 24.73C25.88 24.73 28.24 27.09 28.24 30L28.24 35.27L31.87 35.27L31.87 30C31.87 27.09 34.24 24.73 37.15 24.73L47.58 24.73C50.49 24.73 52.85 27.09 52.85 30L52.85 35.27L58.24 35.27C59.21 35.27 60 36.06 60 37.03ZM52.85 38.79L52.85 42.3L56.48 42.3L56.48 38.79L52.85 38.79ZM35.39 42.19L49.34 42.19L49.34 30C49.34 29.03 48.55 28.24 47.58 28.24L37.15 28.24C36.18 28.24 35.39 29.03 35.39 30L35.39 42.19ZM28.24 38.79L28.24 42.3L31.87 42.3L31.87 38.79L28.24 38.79ZM10.66 42.19L24.73 42.19L24.73 30C24.73 29.03 23.94 28.24 22.97 28.24L12.42 28.24C11.45 28.24 10.66 29.03 10.66 30L10.66 42.19ZM3.52 38.79L3.52 42.3L7.15 42.3L7.15 38.79L3.52 38.79ZM56.48 45.82L3.52 45.82L3.52 49.22L56.48 49.22L56.48 45.82Z" />
		<path id="Path 398" fill-rule="evenodd" class="shp0" d="M18.57 11.43C18.57 5.13 23.7 0 30 0C36.3 0 41.43 5.13 41.43 11.43C41.43 17.73 36.3 22.85 30 22.85C23.7 22.85 18.57 17.73 18.57 11.43ZM22.09 11.43C22.09 15.79 25.64 19.34 30 19.34C34.36 19.34 37.91 15.79 37.91 11.43C37.91 7.06 34.36 3.52 30 3.52C25.64 3.52 22.09 7.06 22.09 11.43Z" />
		<path id="Path 399" class="shp0" d="M29.3 13.36L32.93 13.36C33.9 13.36 34.69 12.57 34.69 11.6C34.69 10.63 33.9 9.84 32.93 9.84L31.05 9.84L31.05 8.2C31.05 7.23 30.27 6.45 29.3 6.45C28.33 6.45 27.54 7.23 27.54 8.2L27.54 11.6C27.54 12.57 28.33 13.36 29.3 13.36Z" />
	</g>
</svg>