<svg xmlns="http://www.w3.org/2000/svg" viewBox="0 0 95 85" width="95" height="85">
	<style>
		tspan { white-space:pre }
		.shp0 { fill: #292929 } 
	</style>
	<path id="Path 389" fill-rule="evenodd" class="shp0" d="M95 45.05L95 76.3C95 80.68 91.44 84.24 87.06 84.24L7.94 84.24C3.56 84.24 0 80.68 0 76.3L0 45.05C0 40.67 3.56 37.11 7.94 37.11L10.85 37.11L39.53 12.07C37.14 6.34 41.38 0 47.59 0C53.82 0 58.04 6.35 55.66 12.07L84.34 37.11L87.06 37.11C91.44 37.11 95 40.67 95 45.05ZM44.43 8.72C44.43 10.46 45.85 11.87 47.59 11.87C49.34 11.87 50.76 10.46 50.76 8.72C50.76 6.98 49.34 5.57 47.59 5.57C45.85 5.57 44.43 6.98 44.43 8.72ZM19.31 37.11L75.87 37.11L51.99 16.25C49.27 17.84 45.91 17.84 43.2 16.25L19.31 37.11ZM89.43 45.05C89.43 43.74 88.37 42.68 87.06 42.68L7.94 42.68C6.63 42.68 5.57 43.74 5.57 45.05L5.57 76.3C5.57 77.61 6.63 78.67 7.94 78.67L87.06 78.67C88.37 78.67 89.43 77.61 89.43 76.3L89.43 45.05Z" />
	<path id="Path 390" fill-rule="evenodd" class="shp0" d="M50.94 68.71C51.63 70.54 50.27 72.48 48.34 72.48C47.21 72.48 46.15 71.79 45.73 70.68L44.75 68.08L37.75 68.08L36.75 70.69C36.2 72.12 34.6 72.84 33.16 72.29C31.72 71.75 31 70.14 31.55 68.7C38.62 50.18 38.31 51.01 38.32 50.96C39.42 48.28 43.24 48.35 44.25 51.03L50.94 68.71ZM42.64 62.51L41.26 58.86L39.87 62.51L42.64 62.51Z" />
	<path id="Path 391" class="shp0" d="M64.28 66.97C64.03 66.97 62.78 66.98 60.75 66.98L60.75 51.77C60.75 50.23 59.51 48.98 57.97 48.98C56.43 48.98 55.19 50.23 55.19 51.77L55.19 69.75C55.19 71.11 56.16 72.26 57.5 72.49C58.04 72.58 62.06 72.55 64.3 72.53C65.84 72.52 67.08 71.27 67.07 69.73C67.06 68.2 65.81 66.97 64.28 66.97L64.28 66.97Z" />
	<path id="Path 392" class="shp0" d="M80.37 54.55C81.91 54.55 83.15 53.3 83.15 51.77C83.15 50.23 81.91 48.98 80.37 48.98L72.81 48.98C71.27 48.98 70.03 50.23 70.03 51.77L70.03 69.66C70.03 71.2 71.27 72.45 72.81 72.45L80.37 72.45C81.91 72.45 83.15 71.2 83.15 69.66C83.15 68.13 81.91 66.88 80.37 66.88L75.6 66.88L75.6 63.5L79.81 63.5C81.35 63.5 82.59 62.25 82.59 60.72C82.59 59.18 81.35 57.93 79.81 57.93L75.6 57.93L75.6 54.55L80.37 54.55Z" />
	<path id="Path 393" class="shp0" d="M23.73 58.2C21.64 57.43 19.68 56.59 18.98 56.29C18.78 56.1 18.77 55.86 18.79 55.69C18.99 54.28 22.14 54.09 24.22 55.74C24.22 55.74 24.22 55.74 24.22 55.74C25.97 57.29 28.8 56.07 28.8 53.63C28.8 52.74 28.39 51.94 27.74 51.43C22.55 47.14 14.18 48.65 13.28 54.9C12.86 57.82 14.58 60.43 16.45 61.26C16.55 61.3 19.02 62.4 21.81 63.43C22.86 63.81 23.93 64.49 23.79 65.23C23.68 65.86 22.79 66.8 21.22 66.8C19.6 66.8 18.04 66.15 17.06 65.07C16.03 63.93 14.27 63.85 13.13 64.88C11.99 65.91 11.91 67.67 12.94 68.81C18.06 74.45 28.03 73.18 29.27 66.21C29.76 63.5 28.55 59.98 23.73 58.2Z" />
</svg>