<svg xmlns="http://www.w3.org/2000/svg" viewBox="0 0 40 40" width="40" height="40">
	<style>
		tspan { white-space:pre }
		.shp0 { opacity: 0.502;fill: #000000 } 
	</style>
	<path id="Search" fill-rule="evenodd" class="shp0" d="M40 37.21L37.21 40L28.78 31.57C25.64 34.08 21.74 35.45 17.72 35.44C7.94 35.44 0 27.5 0 17.72C0 7.94 7.94 0 17.72 0C27.5 0 35.44 7.94 35.44 17.72C35.45 21.74 34.08 25.64 31.57 28.78L40 37.21ZM31.51 17.72C31.51 10.11 25.34 3.94 17.72 3.94C10.11 3.94 3.94 10.11 3.94 17.72C3.94 25.34 10.11 31.51 17.72 31.51C21.31 31.51 24.75 30.12 27.32 27.62L27.62 27.32C30.12 24.75 31.51 21.31 31.51 17.72Z" />
</svg>