<svg xmlns="http://www.w3.org/2000/svg" viewBox="0 0 55 46" width="55" height="46">
	<style>
		tspan { white-space:pre }
		.shp0 { fill: #ffffff } 
	</style>
	<path id="Path 1477" class="shp0" d="M42.7 13.92C41.83 12.85 40.25 12.68 39.17 13.55C38.1 14.42 37.93 16 38.8 17.07C41.39 20.6 41.39 25.4 38.8 28.92C38.19 29.67 38.07 30.71 38.49 31.58C38.9 32.45 39.78 33 40.75 33C41.51 33 42.22 32.66 42.7 32.07C46.78 26.71 46.78 19.29 42.7 13.92L42.7 13.92Z" />
	<path id="Path 1478" class="shp0" d="M46.1 6.07C45.04 5.19 43.46 5.34 42.57 6.4C41.69 7.46 41.84 9.04 42.9 9.92C46.96 13.06 49.39 17.87 49.5 23C49.39 28.13 46.96 32.94 42.9 36.07C42.39 36.5 42.07 37.11 42.01 37.77C41.94 38.43 42.15 39.09 42.57 39.6C43.05 40.17 43.76 40.5 44.5 40.5C45.08 40.5 45.65 40.3 46.1 39.92C51.32 35.85 54.41 29.62 54.5 23C54.41 16.38 51.32 10.15 46.1 6.07L46.1 6.07Z" />
	<path id="Path 1479" fill-rule="evenodd" class="shp0" d="M34.5 0.8C35.28 1.25 35.76 2.09 35.75 3L35.75 43C35.75 44.38 34.63 45.5 33.25 45.5C32.74 45.5 32.25 45.35 31.82 45.07L15.8 34.07L3.3 34.07C1.92 34.07 0.8 32.96 0.8 31.57L0.8 14.42C0.8 13.04 1.92 11.92 3.3 11.92L15.8 11.92L32 0.8C32.77 0.35 33.73 0.35 34.5 0.8ZM30.75 7.75L18 16.5C17.58 16.78 17.08 16.93 16.57 16.92L5.75 16.92L5.75 29.07L16.57 29.07C17.08 29.07 17.58 29.22 18 29.5L30.82 38.3L30.75 7.75Z" />
</svg>