<svg xmlns="http://www.w3.org/2000/svg" viewBox="0 0 55 55" width="55" height="55">
	<style>
		tspan { white-space:pre }
		.shp0 { fill: #53c439 } 
	</style>
	<path id="Path 337" fill-rule="evenodd" class="shp0" d="M55 27.5C55 42.67 42.67 55 27.5 55C12.33 55 0 42.67 0 27.5C0 12.33 12.33 0 27.5 0C42.67 0 55 12.33 55 27.5ZM4.58 27.5C4.58 40.18 14.82 50.42 27.5 50.42C40.18 50.42 50.42 40.18 50.42 27.5C50.42 14.82 40.18 4.58 27.5 4.58C14.82 4.58 4.58 14.82 4.58 27.5ZM38.03 13.96L40.32 15.62C41.23 16.07 41.49 16.72 41.04 17.41L27.29 37.59C26.83 38.28 26.1 38.53 25.64 38.53C24.95 38.53 24.31 38.05 23.85 37.81L15.82 29.8C15.37 29.33 15.37 28.4 15.82 27.71L17.91 25.64C18.36 25.18 19.24 25.23 19.7 25.92L25 31.15L36.24 14.47C36.47 14.12 36.76 13.95 37.09 13.9C37.44 13.84 37.79 13.85 38.03 13.96Z" />
</svg>