<svg xmlns="http://www.w3.org/2000/svg" viewBox="0 0 55 55" width="55" height="55">
	<style>
		tspan { white-space:pre }
		.shp0 { fill: #ffffff } 
	</style>
	<path id="Path 334" fill-rule="evenodd" class="shp0" d="M35.87 28C35.87 32.34 32.34 35.87 28 35.87C23.66 35.87 20.12 32.34 20.12 28C20.12 23.66 23.66 20.12 28 20.12C32.34 20.12 35.87 23.66 35.87 28ZM31.37 28C31.37 26.14 29.86 24.62 28 24.62C26.14 24.62 24.62 26.14 24.62 28C24.62 29.86 26.14 31.37 28 31.37C29.86 31.37 31.37 29.86 31.37 28Z" />
	<path id="Path 335" fill-rule="evenodd" class="shp0" d="M55 28C55 29.24 53.99 30.25 52.75 30.25L48.12 30.25C47.08 39.62 39.62 47.08 30.25 48.12L30.25 52.75C30.25 53.99 29.24 55 28 55C26.76 55 25.75 53.99 25.75 52.75L25.75 48.12C16.38 47.08 8.92 39.62 7.88 30.25L3.25 30.25C2.01 30.25 1 29.24 1 28C1 26.76 2.01 25.75 3.25 25.75L7.88 25.75C8.92 16.38 16.38 8.92 25.75 7.88L25.75 3.25C25.75 2.01 26.76 1 28 1C29.24 1 30.25 2.01 30.25 3.25L30.25 7.88C39.62 8.92 47.08 16.38 48.12 25.75L52.75 25.75C53.99 25.75 55 26.76 55 28ZM43.75 28C43.75 19.31 36.68 12.25 28 12.25C19.31 12.25 12.25 19.31 12.25 28C12.25 36.68 19.31 43.75 28 43.75C36.68 43.75 43.75 36.68 43.75 28Z" />
</svg>