<svg xmlns="http://www.w3.org/2000/svg" viewBox="0 0 51 36" width="51" height="36">
	<style>
		tspan { white-space:pre }
		.shp0 { fill: #5b5b5b } 
	</style>
	<path id="Path 1480" fill-rule="evenodd" class="shp0" d="M50.02 9.57L50.02 26.42C50.02 28.05 49.03 29.51 47.52 30.12C46.98 30.37 46.39 30.5 45.8 30.5C44.73 30.5 43.69 30.09 42.9 29.37L37.5 24.37L37.5 28C37.5 32.14 34.14 35.5 30 35.5L7.5 35.5C3.36 35.5 0 32.14 0 28L0 8C0 3.86 3.36 0.5 7.5 0.5L30 0.5C34.14 0.5 37.5 3.86 37.5 8L37.5 11.62L42.87 6.62C44.13 5.47 45.95 5.18 47.5 5.87C49.02 6.48 50.02 7.94 50.02 9.57ZM32.5 8C32.5 6.62 31.38 5.5 30 5.5L7.5 5.5C6.12 5.5 5 6.62 5 8L5 28C5 29.38 6.12 30.5 7.5 30.5L30 30.5C31.38 30.5 32.5 29.38 32.5 28L32.5 8ZM45 11.5L37.97 18L45 24.5L45 11.5Z" />
</svg>